<mxfile host="app.diagrams.net" modified="2024-04-02T02:51:25.976Z" agent="Mozilla/5.0 (Windows NT 10.0; Win64; x64) AppleWebKit/537.36 (KHTML, like Gecko) Chrome/105.0.0.0 Safari/537.36" version="24.2.1" etag="cNij7HxJ9KpT3kxH8Ajs" type="github">
  <diagram name="第 1 页" id="d8uDb4fDx_4ov-rtAS1f">
    <mxGraphModel>
      <root>
        <mxCell id="0" />
        <mxCell id="1" parent="0" />
      </root>
    </mxGraphModel>
  </diagram>
</mxfile>
